<?xml version="1.0" standalone="no"?>
<!DOCTYPE svg PUBLIC "-//W3C//DTD SVG 20010904//EN"
 "http://www.w3.org/TR/2001/REC-SVG-20010904/DTD/svg10.dtd">
<svg version="1.0" xmlns="http://www.w3.org/2000/svg"
 width="512.000000pt" height="512.000000pt" viewBox="0 0 512.000000 512.000000"
 preserveAspectRatio="xMidYMid meet">
<metadata>
Created by potrace 1.11, written by Peter Selinger 2001-2013
</metadata>
<g transform="translate(0.000000,512.000000) scale(0.100000,-0.100000)"
fill="#000000" stroke="none">
<path d="M0 2560 l0 -2560 2560 0 2560 0 0 2560 0 2560 -2560 0 -2560 0 0
-2560z m1852 380 c125 -437 240 -846 256 -908 24 -94 31 -109 36 -85 4 15 129
425 278 911 l272 882 38 0 c37 0 38 -1 53 -52 104 -363 475 -1685 480 -1712 4
-20 10 -36 14 -36 3 0 118 405 256 900 l249 900 79 0 c70 0 78 -2 73 -17 -3
-10 -127 -434 -276 -943 -149 -509 -282 -962 -296 -1008 l-25 -83 -61 3 -60 3
-234 790 c-129 435 -240 824 -247 865 l-13 75 -12 -60 c-7 -33 -126 -422 -265
-865 l-253 -805 -62 -3 -61 -3 -25 83 c-14 46 -149 502 -301 1013 -152 512
-278 936 -280 943 -4 10 14 12 77 10 l82 -3 228 -795z m-615 128 c47 -44 14
-128 -51 -128 -40 0 -76 35 -76 74 0 66 78 100 127 54z m-7 -878 l0 -500 -45
0 -45 0 0 500 0 500 45 0 45 0 0 -500z"/>
</g>
</svg>
